+ filenameToUse=/home/horvathandras/vatic/vatic/public/videouploads/DJI_0024_30m_szeldontes_vadvalto_arpa_homokmegy_20180603_napos_kalaszos_T4.avi
+ filenameNoDot=DJI_0024_30m_szeldontes_vadvalto_arpa_homokmegy_20180603_napos_kalaszos_T4
+ FullUploadPath=/home/horvathandras/vatic/vatic/public/videouploads/DJI_0024_30m_szeldontes_vadvalto_arpa_homokmegy_20180603_napos_kalaszos_T4.avi
+ VideoDataDir=/home/horvathandras/vatic/vatic/videos
+ AvailableObjectTypes='PozitívROI NegatívROI Túrás ~Friss ~1-2Hetes ~Régebbi ~Egyéb1 ~Egyéb2 ~Egyéb3 Rágás ~Friss ~1-2Hetes ~Régebbi ~Egyéb1 ~Egyéb2 ~Egyéb3 Törés ~Friss ~1-2Hetes ~Régebbi ~Egyéb1 ~Egyéb2 ~Egyéb3 Taposás ~Friss ~1-2Hetes ~Régebbi ~Egyéb1 ~Egyéb2 ~Egyéb3 EgészségesNövény Egyéb1 Egyéb2 Egyéb3 Egyéb4 Egyéb5 Bizonytalan Művelőút Gktaposás Vetőhiba Széldöntés Jégkár Belvíz Aszály Erózió EgyszikűGyom KétszikűGyom EgyébNövvédelmiPR'
++ dirname /home/horvathandras/vatic/vatic/vatic_publisher.sh
+ cd /home/horvathandras/vatic/vatic
+ touch /home/horvathandras/vatic/vatic/public/videouploads/DJI_0024_30m_szeldontes_vadvalto_arpa_homokmegy_20180603_napos_kalaszos_T4.avi
+ chmod 744 /home/horvathandras/vatic/vatic/public/videouploads/DJI_0024_30m_szeldontes_vadvalto_arpa_homokmegy_20180603_napos_kalaszos_T4.avi
+ mkdir /home/horvathandras/vatic/vatic/videos/DJI_0024_30m_szeldontes_vadvalto_arpa_homokmegy_20180603_napos_kalaszos_T4
mkdir: cannot create directory '/home/horvathandras/vatic/vatic/videos/DJI_0024_30m_szeldontes_vadvalto_arpa_homokmegy_20180603_napos_kalaszos_T4': File exists
+ turkic extract /home/horvathandras/vatic/vatic/public/videouploads/DJI_0024_30m_szeldontes_vadvalto_arpa_homokmegy_20180603_napos_kalaszos_T4.avi /home/horvathandras/vatic/vatic/videos/DJI_0024_30m_szeldontes_vadvalto_arpa_homokmegy_20180603_napos_kalaszos_T4 --no-resize
ffmpeg version 2.8.14-0ubuntu0.16.04.1 Copyright (c) 2000-2018 the FFmpeg developers
  built with gcc 5.4.0 (Ubuntu 5.4.0-6ubuntu1~16.04.9) 20160609
  configuration: --prefix=/usr --extra-version=0ubuntu0.16.04.1 --build-suffix=-ffmpeg --toolchain=hardened --libdir=/usr/lib/x86_64-linux-gnu --incdir=/usr/include/x86_64-linux-gnu --cc=cc --cxx=g++ --enable-gpl --enable-shared --disable-stripping --disable-decoder=libopenjpeg --disable-decoder=libschroedinger --enable-avresample --enable-avisynth --enable-gnutls --enable-ladspa --enable-libass --enable-libbluray --enable-libbs2b --enable-libcaca --enable-libcdio --enable-libflite --enable-libfontconfig --enable-libfreetype --enable-libfribidi --enable-libgme --enable-libgsm --enable-libmodplug --enable-libmp3lame --enable-libopenjpeg --enable-libopus --enable-libpulse --enable-librtmp --enable-libschroedinger --enable-libshine --enable-libsnappy --enable-libsoxr --enable-libspeex --enable-libssh --enable-libtheora --enable-libtwolame --enable-libvorbis --enable-libvpx --enable-libwavpack --enable-libwebp --enable-libx265 --enable-libxvid --enable-libzvbi --enable-openal --enable-opengl --enable-x11grab --enable-libdc1394 --enable-libiec61883 --enable-libzmq --enable-frei0r --enable-libx264 --enable-libopencv
  libavutil      54. 31.100 / 54. 31.100
  libavcodec     56. 60.100 / 56. 60.100
  libavformat    56. 40.101 / 56. 40.101
  libavdevice    56.  4.100 / 56.  4.100
  libavfilter     5. 40.101 /  5. 40.101
  libavresample   2.  1.  0 /  2.  1.  0
  libswscale      3.  1.101 /  3.  1.101
  libswresample   1.  2.101 /  1.  2.101
  libpostproc    53.  3.100 / 53.  3.100
Input #0, mov,mp4,m4a,3gp,3g2,mj2, from '/home/horvathandras/vatic/vatic/public/videouploads/DJI_0024_30m_szeldontes_vadvalto_arpa_homokmegy_20180603_napos_kalaszos_T4.avi':
  Metadata:
    major_brand     : qt  
    minor_version   : 537986816
    compatible_brands: qt  
    creation_time   : 2018-06-03 08:06:45
    location        : +46.515955+19.136611+30.300
    location-{    : +46.515955+19.136611+30.300
    comment         : DE=None, Mode=P, DSW=0001
  Duration: 00:00:23.38, start: 0.000000, bitrate: 100712 kb/s
    Stream #0:0(eng): Video: h264 (High) (avc1 / 0x31637661), yuv420p(tv, bt709), 4096x2160 [SAR 1:1 DAR 256:135], 100528 kb/s, 50 fps, 50 tbr, 50k tbn, 100 tbc (default)
    Metadata:
      creation_time   : 2018-06-03 08:06:45
      handler_name    : DJI.AVC
      encoder         : AVC encoder
    Stream #0:1(eng): Data: none (priv / 0x76697270), 175 kb/s
    Metadata:
      creation_time   : 2018-06-03 08:06:45
      handler_name    : DJI.Meta
Please use -b:a or -b:v, -b is ambiguous
[swscaler @ 0x1303940] deprecated pixel format used, make sure you did set range correctly
Output #0, image2, to '/tmp/pyvision-ffmpeg-652496983/%d.jpg':
  Metadata:
    major_brand     : qt  
    minor_version   : 537986816
    compatible_brands: qt  
    comment         : DE=None, Mode=P, DSW=0001
    location        : +46.515955+19.136611+30.300
    location-{    : +46.515955+19.136611+30.300
    encoder         : Lavf56.40.101
    Stream #0:0(eng): Video: mjpeg, yuvj420p(pc), 4096x2160 [SAR 1:1 DAR 256:135], q=2-31, 10000 kb/s, 50 fps, 50 tbn, 50 tbc (default)
    Metadata:
      creation_time   : 2018-06-03 08:06:45
      handler_name    : DJI.AVC
      encoder         : Lavc56.60.100 mjpeg
Stream mapping:
  Stream #0:0 -> #0:0 (h264 (native) -> mjpeg (native))
Press [q] to stop, [?] for help
frame=    1 fps=0.0 q=19.9 size=N/A time=00:00:00.02 bitrate=N/A    frame=    5 fps=4.1 q=24.8 size=N/A time=00:00:00.10 bitrate=N/A    frame=    9 fps=5.2 q=24.8 size=N/A time=00:00:00.18 bitrate=N/A    frame=   13 fps=5.8 q=24.8 size=N/A time=00:00:00.26 bitrate=N/A    frame=   17 fps=6.2 q=24.8 size=N/A time=00:00:00.34 bitrate=N/A    frame=   22 fps=6.6 q=24.8 size=N/A time=00:00:00.44 bitrate=N/A    frame=   26 fps=6.7 q=24.8 size=N/A time=00:00:00.52 bitrate=N/A    frame=   31 fps=6.9 q=24.8 size=N/A time=00:00:00.62 bitrate=N/A    frame=   35 fps=7.0 q=24.8 size=N/A time=00:00:00.70 bitrate=N/A    frame=   40 fps=7.1 q=24.8 size=N/A time=00:00:00.80 bitrate=N/A    frame=   44 fps=7.1 q=24.8 size=N/A time=00:00:00.88 bitrate=N/A    frame=   49 fps=7.2 q=24.8 size=N/A time=00:00:00.98 bitrate=N/A    frame=   54 fps=7.3 q=24.8 size=N/A time=00:00:01.08 bitrate=N/A    frame=   59 fps=7.3 q=24.8 size=N/A time=00:00:01.18 bitrate=N/A    frame=   64 fps=7.4 q=24.8 size=N/A time=00:00:01.28 bitrate=N/A    frame=   69 fps=7.4 q=24.8 size=N/A time=00:00:01.38 bitrate=N/A    frame=   74 fps=7.5 q=24.8 size=N/A time=00:00:01.48 bitrate=N/A    frame=   79 fps=7.5 q=24.8 size=N/A time=00:00:01.58 bitrate=N/A    frame=   84 fps=7.5 q=24.8 size=N/A time=00:00:01.68 bitrate=N/A    frame=   89 fps=7.5 q=24.8 size=N/A time=00:00:01.78 bitrate=N/A    frame=   94 fps=7.6 q=24.8 size=N/A time=00:00:01.88 bitrate=N/A    frame=   99 fps=7.6 q=24.8 size=N/A time=00:00:01.98 bitrate=N/A    frame=  104 fps=7.6 q=24.8 size=N/A time=00:00:02.08 bitrate=N/A    frame=  109 fps=7.6 q=24.8 size=N/A time=00:00:02.18 bitrate=N/A    frame=  113 fps=7.6 q=24.8 size=N/A time=00:00:02.26 bitrate=N/A    frame=  117 fps=7.6 q=24.8 size=N/A time=00:00:02.34 bitrate=N/A    frame=  121 fps=7.6 q=24.8 size=N/A time=00:00:02.42 bitrate=N/A    frame=  125 fps=7.6 q=24.8 size=N/A time=00:00:02.50 bitrate=N/A    frame=  130 fps=7.7 q=24.8 size=N/A time=00:00:02.60 bitrate=N/A    frame=  135 fps=7.7 q=24.8 size=N/A time=00:00:02.70 bitrate=N/A    frame=  140 fps=7.7 q=24.8 size=N/A time=00:00:02.80 bitrate=N/A    frame=  145 fps=7.7 q=24.8 size=N/A time=00:00:02.90 bitrate=N/A    frame=  150 fps=7.7 q=24.8 size=N/A time=00:00:03.00 bitrate=N/A    frame=  154 fps=7.7 q=24.8 size=N/A time=00:00:03.08 bitrate=N/A    frame=  159 fps=7.7 q=24.8 size=N/A time=00:00:03.18 bitrate=N/A    frame=  164 fps=7.7 q=24.8 size=N/A time=00:00:03.28 bitrate=N/A    frame=  169 fps=7.7 q=24.8 size=N/A time=00:00:03.38 bitrate=N/A    frame=  173 fps=7.7 q=24.8 size=N/A time=00:00:03.46 bitrate=N/A    frame=  178 fps=7.7 q=24.8 size=N/A time=00:00:03.56 bitrate=N/A    frame=  183 fps=7.8 q=24.8 size=N/A time=00:00:03.66 bitrate=N/A    frame=  187 fps=7.8 q=24.8 size=N/A time=00:00:03.74 bitrate=N/A    frame=  191 fps=7.8 q=24.8 size=N/A time=00:00:03.82 bitrate=N/A    frame=  195 fps=7.8 q=24.8 size=N/A time=00:00:03.90 bitrate=N/A    frame=  200 fps=7.8 q=24.8 size=N/A time=00:00:04.00 bitrate=N/A    frame=  205 fps=7.8 q=24.8 size=N/A time=00:00:04.10 bitrate=N/A    frame=  210 fps=7.8 q=24.8 size=N/A time=00:00:04.20 bitrate=N/A    frame=  214 fps=7.8 q=24.8 size=N/A time=00:00:04.28 bitrate=N/A    frame=  219 fps=7.8 q=24.8 size=N/A time=00:00:04.38 bitrate=N/A    frame=  224 fps=7.8 q=24.8 size=N/A time=00:00:04.48 bitrate=N/A    frame=  229 fps=7.8 q=24.8 size=N/A time=00:00:04.58 bitrate=N/A    frame=  233 fps=7.8 q=24.8 size=N/A time=00:00:04.66 bitrate=N/A    frame=  238 fps=7.8 q=24.8 size=N/A time=00:00:04.76 bitrate=N/A    frame=  243 fps=7.8 q=24.8 size=N/A time=00:00:04.86 bitrate=N/A    frame=  248 fps=7.8 q=24.8 size=N/A time=00:00:04.96 bitrate=N/A    frame=  253 fps=7.8 q=24.8 size=N/A time=00:00:05.06 bitrate=N/A    frame=  258 fps=7.8 q=24.8 size=N/A time=00:00:05.16 bitrate=N/A    frame=  263 fps=7.8 q=24.8 size=N/A time=00:00:05.26 bitrate=N/A    frame=  267 fps=7.8 q=24.8 size=N/A time=00:00:05.34 bitrate=N/A    frame=  271 fps=7.8 q=24.8 size=N/A time=00:00:05.42 bitrate=N/A    frame=  275 fps=7.8 q=24.8 size=N/A time=00:00:05.50 bitrate=N/A    frame=  280 fps=7.8 q=24.8 size=N/A time=00:00:05.60 bitrate=N/A    frame=  285 fps=7.8 q=24.8 size=N/A time=00:00:05.70 bitrate=N/A    frame=  290 fps=7.8 q=24.8 size=N/A time=00:00:05.80 bitrate=N/A    frame=  294 fps=7.8 q=24.8 size=N/A time=00:00:05.88 bitrate=N/A    frame=  299 fps=7.8 q=24.8 size=N/A time=00:00:05.98 bitrate=N/A    frame=  303 fps=7.8 q=24.8 size=N/A time=00:00:06.06 bitrate=N/A    frame=  308 fps=7.8 q=24.8 size=N/A time=00:00:06.16 bitrate=N/A    frame=  313 fps=7.8 q=24.8 size=N/A time=00:00:06.26 bitrate=N/A    frame=  317 fps=7.8 q=24.8 size=N/A time=00:00:06.34 bitrate=N/A    frame=  322 fps=7.8 q=24.8 size=N/A time=00:00:06.44 bitrate=N/A    frame=  327 fps=7.9 q=24.8 size=N/A time=00:00:06.54 bitrate=N/A    frame=  332 fps=7.9 q=24.8 size=N/A time=00:00:06.64 bitrate=N/A    frame=  336 fps=7.9 q=24.8 size=N/A time=00:00:06.72 bitrate=N/A    frame=  340 fps=7.9 q=24.8 size=N/A time=00:00:06.80 bitrate=N/A    frame=  344 fps=7.8 q=24.8 size=N/A time=00:00:06.88 bitrate=N/A    frame=  348 fps=7.8 q=24.8 size=N/A time=00:00:06.96 bitrate=N/A    frame=  352 fps=7.8 q=24.8 size=N/A time=00:00:07.04 bitrate=N/A    frame=  356 fps=7.8 q=24.8 size=N/A time=00:00:07.12 bitrate=N/A    frame=  360 fps=7.8 q=24.8 size=N/A time=00:00:07.20 bitrate=N/A    frame=  364 fps=7.8 q=24.8 size=N/A time=00:00:07.28 bitrate=N/A    frame=  368 fps=7.8 q=24.8 size=N/A time=00:00:07.36 bitrate=N/A    frame=  372 fps=7.7 q=24.8 size=N/A time=00:00:07.44 bitrate=N/A    frame=  376 fps=7.7 q=24.8 size=N/A time=00:00:07.52 bitrate=N/A    frame=  380 fps=7.7 q=24.8 size=N/A time=00:00:07.60 bitrate=N/A    frame=  383 fps=7.7 q=24.8 size=N/A time=00:00:07.66 bitrate=N/A    frame=  387 fps=7.7 q=24.8 size=N/A time=00:00:07.74 bitrate=N/A    frame=  391 fps=7.7 q=24.8 size=N/A time=00:00:07.82 bitrate=N/A    frame=  395 fps=7.7 q=24.8 size=N/A time=00:00:07.90 bitrate=N/A    frame=  400 fps=7.7 q=24.8 size=N/A time=00:00:08.00 bitrate=N/A    frame=  405 fps=7.7 q=24.8 size=N/A time=00:00:08.10 bitrate=N/A    frame=  409 fps=7.7 q=24.8 size=N/A time=00:00:08.18 bitrate=N/A    frame=  413 fps=7.7 q=24.8 size=N/A time=00:00:08.26 bitrate=N/A    frame=  418 fps=7.7 q=24.8 size=N/A time=00:00:08.36 bitrate=N/A    frame=  422 fps=7.7 q=24.8 size=N/A time=00:00:08.44 bitrate=N/A    frame=  427 fps=7.7 q=24.8 size=N/A time=00:00:08.54 bitrate=N/A    frame=  431 fps=7.7 q=24.8 size=N/A time=00:00:08.62 bitrate=N/A    frame=  435 fps=7.7 q=24.8 size=N/A time=00:00:08.70 bitrate=N/A    frame=  440 fps=7.7 q=24.8 size=N/A time=00:00:08.80 bitrate=N/A    frame=  445 fps=7.7 q=24.8 size=N/A time=00:00:08.90 bitrate=N/A    frame=  450 fps=7.7 q=24.8 size=N/A time=00:00:09.00 bitrate=N/A    frame=  454 fps=7.7 q=24.8 size=N/A time=00:00:09.08 bitrate=N/A    frame=  458 fps=7.7 q=24.8 size=N/A time=00:00:09.16 bitrate=N/A    frame=  463 fps=7.7 q=24.8 size=N/A time=00:00:09.26 bitrate=N/A    frame=  468 fps=7.7 q=24.8 size=N/A time=00:00:09.36 bitrate=N/A    frame=  473 fps=7.7 q=24.8 size=N/A time=00:00:09.46 bitrate=N/A    frame=  478 fps=7.7 q=24.8 size=N/A time=00:00:09.56 bitrate=N/A    frame=  483 fps=7.7 q=24.8 size=N/A time=00:00:09.66 bitrate=N/A    frame=  487 fps=7.7 q=24.8 size=N/A time=00:00:09.74 bitrate=N/A    frame=  491 fps=7.7 q=24.8 size=N/A time=00:00:09.82 bitrate=N/A    frame=  496 fps=7.7 q=24.8 size=N/A time=00:00:09.92 bitrate=N/A    frame=  501 fps=7.7 q=24.8 size=N/A time=00:00:10.02 bitrate=N/A    frame=  505 fps=7.8 q=24.8 size=N/A time=00:00:10.10 bitrate=N/A    frame=  510 fps=7.7 q=24.8 size=N/A time=00:00:10.20 bitrate=N/A    frame=  514 fps=7.7 q=24.8 size=N/A time=00:00:10.28 bitrate=N/A    frame=  518 fps=7.7 q=24.8 size=N/A time=00:00:10.36 bitrate=N/A    frame=  522 fps=7.7 q=24.8 size=N/A time=00:00:10.44 bitrate=N/A    frame=  526 fps=7.7 q=24.8 size=N/A time=00:00:10.52 bitrate=N/A    frame=  530 fps=7.7 q=24.8 size=N/A time=00:00:10.60 bitrate=N/A    frame=  534 fps=7.7 q=24.8 size=N/A time=00:00:10.68 bitrate=N/A    frame=  538 fps=7.7 q=24.8 size=N/A time=00:00:10.76 bitrate=N/A    frame=  541 fps=7.7 q=24.8 size=N/A time=00:00:10.82 bitrate=N/A    frame=  545 fps=7.7 q=24.8 size=N/A time=00:00:10.90 bitrate=N/A    frame=  549 fps=7.7 q=24.8 size=N/A time=00:00:10.98 bitrate=N/A    frame=  553 fps=7.7 q=24.8 size=N/A time=00:00:11.06 bitrate=N/A    frame=  557 fps=7.7 q=24.8 size=N/A time=00:00:11.14 bitrate=N/A    frame=  561 fps=7.7 q=24.8 size=N/A time=00:00:11.22 bitrate=N/A    frame=  565 fps=7.7 q=24.8 size=N/A time=00:00:11.30 bitrate=N/A    frame=  570 fps=7.7 q=24.8 size=N/A time=00:00:11.40 bitrate=N/A    frame=  574 fps=7.7 q=24.8 size=N/A time=00:00:11.48 bitrate=N/A    frame=  578 fps=7.7 q=24.8 size=N/A time=00:00:11.56 bitrate=N/A    frame=  583 fps=7.7 q=24.8 size=N/A time=00:00:11.66 bitrate=N/A    frame=  588 fps=7.7 q=24.8 size=N/A time=00:00:11.76 bitrate=N/A    frame=  593 fps=7.7 q=24.8 size=N/A time=00:00:11.86 bitrate=N/A    frame=  598 fps=7.7 q=24.8 size=N/A time=00:00:11.96 bitrate=N/A    frame=  603 fps=7.7 q=24.8 size=N/A time=00:00:12.06 bitrate=N/A    frame=  608 fps=7.7 q=24.8 size=N/A time=00:00:12.16 bitrate=N/A    frame=  613 fps=7.7 q=24.8 size=N/A time=00:00:12.26 bitrate=N/A    frame=  618 fps=7.7 q=24.8 size=N/A time=00:00:12.36 bitrate=N/A    frame=  622 fps=7.7 q=24.8 size=N/A time=00:00:12.44 bitrate=N/A    frame=  626 fps=7.7 q=24.8 size=N/A time=00:00:12.52 bitrate=N/A    frame=  630 fps=7.7 q=24.8 size=N/A time=00:00:12.60 bitrate=N/A    frame=  634 fps=7.7 q=24.8 size=N/A time=00:00:12.68 bitrate=N/A    frame=  638 fps=7.7 q=24.8 size=N/A time=00:00:12.76 bitrate=N/A    frame=  642 fps=7.7 q=24.8 size=N/A time=00:00:12.84 bitrate=N/A    frame=  647 fps=7.7 q=24.8 size=N/A time=00:00:12.94 bitrate=N/A    frame=  652 fps=7.7 q=24.8 size=N/A time=00:00:13.04 bitrate=N/A    frame=  656 fps=7.7 q=24.8 size=N/A time=00:00:13.12 bitrate=N/A    frame=  660 fps=7.7 q=24.8 size=N/A time=00:00:13.20 bitrate=N/A    frame=  664 fps=7.7 q=24.8 size=N/A time=00:00:13.28 bitrate=N/A    frame=  669 fps=7.7 q=24.8 size=N/A time=00:00:13.38 bitrate=N/A    frame=  674 fps=7.7 q=24.8 size=N/A time=00:00:13.48 bitrate=N/A    frame=  678 fps=7.7 q=24.8 size=N/A time=00:00:13.56 bitrate=N/A    frame=  683 fps=7.7 q=24.8 size=N/A time=00:00:13.66 bitrate=N/A    frame=  688 fps=7.7 q=24.8 size=N/A time=00:00:13.76 bitrate=N/A    frame=  693 fps=7.7 q=24.8 size=N/A time=00:00:13.86 bitrate=N/A    frame=  698 fps=7.7 q=24.8 size=N/A time=00:00:13.96 bitrate=N/A    frame=  703 fps=7.7 q=24.8 size=N/A time=00:00:14.06 bitrate=N/A    frame=  708 fps=7.7 q=24.8 size=N/A time=00:00:14.16 bitrate=N/A    frame=  712 fps=7.7 q=24.8 size=N/A time=00:00:14.24 bitrate=N/A    frame=  716 fps=7.7 q=24.8 size=N/A time=00:00:14.32 bitrate=N/A    frame=  720 fps=7.7 q=24.8 size=N/A time=00:00:14.40 bitrate=N/A    frame=  725 fps=7.7 q=24.8 size=N/A time=00:00:14.50 bitrate=N/A    frame=  730 fps=7.7 q=24.8 size=N/A time=00:00:14.60 bitrate=N/A    frame=  735 fps=7.7 q=24.8 size=N/A time=00:00:14.70 bitrate=N/A    frame=  740 fps=7.7 q=24.8 size=N/A time=00:00:14.80 bitrate=N/A    frame=  745 fps=7.7 q=24.8 size=N/A time=00:00:14.90 bitrate=N/A    frame=  749 fps=7.7 q=24.8 size=N/A time=00:00:14.98 bitrate=N/A    frame=  754 fps=7.7 q=24.8 size=N/A time=00:00:15.08 bitrate=N/A    frame=  759 fps=7.7 q=24.8 size=N/A time=00:00:15.18 bitrate=N/A    frame=  764 fps=7.7 q=24.8 size=N/A time=00:00:15.28 bitrate=N/A    frame=  769 fps=7.7 q=24.8 size=N/A time=00:00:15.38 bitrate=N/A    frame=  774 fps=7.8 q=24.8 size=N/A time=00:00:15.48 bitrate=N/A    frame=  779 fps=7.8 q=24.8 size=N/A time=00:00:15.58 bitrate=N/A    frame=  783 fps=7.8 q=24.8 size=N/A time=00:00:15.66 bitrate=N/A    frame=  788 fps=7.8 q=24.8 size=N/A time=00:00:15.76 bitrate=N/A    frame=  793 fps=7.8 q=24.8 size=N/A time=00:00:15.86 bitrate=N/A    frame=  798 fps=7.8 q=24.8 size=N/A time=00:00:15.96 bitrate=N/A    frame=  803 fps=7.8 q=24.8 size=N/A time=00:00:16.06 bitrate=N/A    frame=  808 fps=7.8 q=24.8 size=N/A time=00:00:16.16 bitrate=N/A    frame=  812 fps=7.8 q=24.8 size=N/A time=00:00:16.24 bitrate=N/A    frame=  817 fps=7.8 q=24.8 size=N/A time=00:00:16.34 bitrate=N/A    frame=  821 fps=7.8 q=24.8 size=N/A time=00:00:16.42 bitrate=N/A    frame=  825 fps=7.8 q=24.8 size=N/A time=00:00:16.50 bitrate=N/A    frame=  829 fps=7.8 q=24.8 size=N/A time=00:00:16.58 bitrate=N/A    frame=  834 fps=7.8 q=24.8 size=N/A time=00:00:16.68 bitrate=N/A    frame=  838 fps=7.8 q=24.8 size=N/A time=00:00:16.76 bitrate=N/A    frame=  843 fps=7.8 q=24.8 size=N/A time=00:00:16.86 bitrate=N/A    frame=  848 fps=7.8 q=24.8 size=N/A time=00:00:16.96 bitrate=N/A    frame=  853 fps=7.8 q=24.8 size=N/A time=00:00:17.06 bitrate=N/A    frame=  858 fps=7.8 q=24.8 size=N/A time=00:00:17.16 bitrate=N/A    frame=  863 fps=7.8 q=24.8 size=N/A time=00:00:17.26 bitrate=N/A    frame=  868 fps=7.8 q=24.8 size=N/A time=00:00:17.36 bitrate=N/A    frame=  873 fps=7.8 q=24.8 size=N/A time=00:00:17.46 bitrate=N/A    frame=  878 fps=7.8 q=24.8 size=N/A time=00:00:17.56 bitrate=N/A    frame=  882 fps=7.8 q=24.8 size=N/A time=00:00:17.64 bitrate=N/A    frame=  887 fps=7.8 q=24.8 size=N/A time=00:00:17.74 bitrate=N/A    frame=  891 fps=7.8 q=24.8 size=N/A time=00:00:17.82 bitrate=N/A    frame=  896 fps=7.8 q=24.8 size=N/A time=00:00:17.92 bitrate=N/A    frame=  900 fps=7.8 q=24.8 size=N/A time=00:00:18.00 bitrate=N/A    frame=  905 fps=7.8 q=24.8 size=N/A time=00:00:18.10 bitrate=N/A    frame=  910 fps=7.8 q=24.8 size=N/A time=00:00:18.20 bitrate=N/A    frame=  915 fps=7.8 q=24.8 size=N/A time=00:00:18.30 bitrate=N/A    frame=  920 fps=7.8 q=24.8 size=N/A time=00:00:18.40 bitrate=N/A    frame=  925 fps=7.8 q=24.8 size=N/A time=00:00:18.50 bitrate=N/A    frame=  930 fps=7.8 q=24.8 size=N/A time=00:00:18.60 bitrate=N/A    frame=  934 fps=7.8 q=24.8 size=N/A time=00:00:18.68 bitrate=N/A    frame=  939 fps=7.8 q=24.8 size=N/A time=00:00:18.78 bitrate=N/A    frame=  944 fps=7.8 q=24.8 size=N/A time=00:00:18.88 bitrate=N/A    frame=  949 fps=7.8 q=24.8 size=N/A time=00:00:18.98 bitrate=N/A    frame=  954 fps=7.8 q=24.8 size=N/A time=00:00:19.08 bitrate=N/A    frame=  959 fps=7.8 q=24.8 size=N/A time=00:00:19.18 bitrate=N/A    frame=  964 fps=7.8 q=24.8 size=N/A time=00:00:19.28 bitrate=N/A    frame=  969 fps=7.8 q=24.8 size=N/A time=00:00:19.38 bitrate=N/A    frame=  974 fps=7.8 q=24.8 size=N/A time=00:00:19.48 bitrate=N/A    frame=  979 fps=7.8 q=24.8 size=N/A time=00:00:19.58 bitrate=N/A    frame=  984 fps=7.8 q=24.8 size=N/A time=00:00:19.68 bitrate=N/A    frame=  989 fps=7.8 q=24.8 size=N/A time=00:00:19.78 bitrate=N/A    frame=  994 fps=7.8 q=24.8 size=N/A time=00:00:19.88 bitrate=N/A    frame=  999 fps=7.8 q=24.8 size=N/A time=00:00:19.98 bitrate=N/A    frame= 1003 fps=7.8 q=24.8 size=N/A time=00:00:20.06 bitrate=N/A    frame= 1008 fps=7.8 q=24.8 size=N/A time=00:00:20.16 bitrate=N/A    frame= 1013 fps=7.8 q=24.8 size=N/A time=00:00:20.26 bitrate=N/A    frame= 1018 fps=7.8 q=24.8 size=N/A time=00:00:20.36 bitrate=N/A    frame= 1023 fps=7.8 q=24.8 size=N/A time=00:00:20.46 bitrate=N/A    frame= 1028 fps=7.8 q=24.8 size=N/A time=00:00:20.56 bitrate=N/A    frame= 1033 fps=7.8 q=24.8 size=N/A time=00:00:20.66 bitrate=N/A    frame= 1038 fps=7.8 q=24.8 size=N/A time=00:00:20.76 bitrate=N/A    frame= 1043 fps=7.8 q=24.8 size=N/A time=00:00:20.86 bitrate=N/A    frame= 1048 fps=7.8 q=24.8 size=N/A time=00:00:20.96 bitrate=N/A    frame= 1053 fps=7.8 q=24.8 size=N/A time=00:00:21.06 bitrate=N/A    frame= 1058 fps=7.8 q=24.8 size=N/A time=00:00:21.16 bitrate=N/A    frame= 1063 fps=7.8 q=24.8 size=N/A time=00:00:21.26 bitrate=N/A    frame= 1068 fps=7.8 q=24.8 size=N/A time=00:00:21.36 bitrate=N/A    frame= 1073 fps=7.8 q=24.8 size=N/A time=00:00:21.46 bitrate=N/A    frame= 1078 fps=7.8 q=24.8 size=N/A time=00:00:21.56 bitrate=N/A    frame= 1083 fps=7.8 q=24.8 size=N/A time=00:00:21.66 bitrate=N/A    frame= 1088 fps=7.8 q=24.8 size=N/A time=00:00:21.76 bitrate=N/A    frame= 1093 fps=7.8 q=24.8 size=N/A time=00:00:21.86 bitrate=N/A    frame= 1098 fps=7.8 q=24.8 size=N/A time=00:00:21.96 bitrate=N/A    frame= 1103 fps=7.8 q=24.8 size=N/A time=00:00:22.06 bitrate=N/A    frame= 1108 fps=7.8 q=24.8 size=N/A time=00:00:22.16 bitrate=N/A    frame= 1113 fps=7.8 q=24.8 size=N/A time=00:00:22.26 bitrate=N/A    frame= 1118 fps=7.8 q=24.8 size=N/A time=00:00:22.36 bitrate=N/A    frame= 1123 fps=7.8 q=24.8 size=N/A time=00:00:22.46 bitrate=N/A    frame= 1128 fps=7.8 q=24.8 size=N/A time=00:00:22.56 bitrate=N/A    frame= 1133 fps=7.8 q=24.8 size=N/A time=00:00:22.66 bitrate=N/A    frame= 1138 fps=7.8 q=24.8 size=N/A time=00:00:22.76 bitrate=N/A    frame= 1143 fps=7.8 q=24.8 size=N/A time=00:00:22.86 bitrate=N/A    frame= 1148 fps=7.8 q=24.8 size=N/A time=00:00:22.96 bitrate=N/A    frame= 1153 fps=7.8 q=24.8 size=N/A time=00:00:23.06 bitrate=N/A    frame= 1158 fps=7.8 q=24.8 size=N/A time=00:00:23.16 bitrate=N/A    frame= 1163 fps=7.8 q=24.8 size=N/A time=00:00:23.26 bitrate=N/A    frame= 1168 fps=7.8 q=24.8 size=N/A time=00:00:23.36 bitrate=N/A    frame= 1169 fps=7.8 q=24.8 Lsize=N/A time=00:00:23.38 bitrate=N/A    
video:1123519kB audio:0kB subtitle:0kB other streams:0kB global headers:0kB muxing overhead: unknown
+ turkic load DJI_0024_30m_szeldontes_vadvalto_arpa_homokmegy_20180603_napos_kalaszos_T4 /home/horvathandras/vatic/vatic/videos/DJI_0024_30m_szeldontes_vadvalto_arpa_homokmegy_20180603_napos_kalaszos_T4 $'Pozit\303\255vROI' $'Negat\303\255vROI' $'T\303\272r\303\241s' '~Friss' '~1-2Hetes' '~Régebbi' '~Egyéb1' '~Egyéb2' '~Egyéb3' $'R\303\241g\303\241s' '~Friss' '~1-2Hetes' '~Régebbi' '~Egyéb1' '~Egyéb2' '~Egyéb3' $'T\303\266r\303\251s' '~Friss' '~1-2Hetes' '~Régebbi' '~Egyéb1' '~Egyéb2' '~Egyéb3' $'Tapos\303\241s' '~Friss' '~1-2Hetes' '~Régebbi' '~Egyéb1' '~Egyéb2' '~Egyéb3' $'Eg\303\251szs\303\251gesN\303\266v\303\251ny' $'Egy\303\251b1' $'Egy\303\251b2' $'Egy\303\251b3' $'Egy\303\251b4' $'Egy\303\251b5' Bizonytalan $'M\305\261vel\305\221\303\272t' $'Gktapos\303\241s' $'Vet\305\221hiba' $'Sz\303\251ld\303\266nt\303\251s' $'J\303\251gk\303\241r' $'Belv\303\255z' $'Asz\303\241ly' $'Er\303\263zi\303\263' $'Egyszik\305\261Gyom' $'K\303\251tszik\305\261Gyom' $'Egy\303\251bN\303\266vv\303\251delmiPR' --offline --title '$filenameNoDot Video' --length 1000 --description 'vatic annotation'
+ turkic publish --offline
+ mkdir /home/horvathandras/vatic/vatic/public/videothumbnails/DJI_0024_30m_szeldontes_vadvalto_arpa_homokmegy_20180603_napos_kalaszos_T4
mkdir: cannot create directory '/home/horvathandras/vatic/vatic/public/videothumbnails/DJI_0024_30m_szeldontes_vadvalto_arpa_homokmegy_20180603_napos_kalaszos_T4': File exists
+ cp /home/horvathandras/vatic/vatic/videos/DJI_0024_30m_szeldontes_vadvalto_arpa_homokmegy_20180603_napos_kalaszos_T4/0/0/31.jpg /home/horvathandras/vatic/vatic/public/videothumbnails/DJI_0024_30m_szeldontes_vadvalto_arpa_homokmegy_20180603_napos_kalaszos_T4/thumb.jpg
itrate=N/A    frame= 1152 fps=7.7 q=24.8 size=N/A time=00:00:23.04 bitrate=N/A    frame= 1156 fps=7.7 q=24.8 size=N/A time=00:00:23.12 bitrate=N/A    frame= 1160 fps=7.7 q=24.8 size=N/A time=00:00:23.20 bitrate=N/A    frame= 1165 fps=7.7 q=24.8 size=N/A time=00:00:23.30 bitrate=N/A    frame= 1169 fps=7.7 q=24.8 size=N/A time=00:00:23.38 bitrate=N/A    frame= 1169 fps=7.7 q=24.8 Lsize=N/A time=00:00:23.38 bitrate=N/A    
video:1123519kB audio:0kB subtitle:0kB other streams:0kB global headers:0kB muxing overhead: unknown
+ turkic load DJI_0024_30m_szeldontes_vadvalto_arpa_homokmegy_20180603_napos_kalaszos_T4 /home/horvathandras/vatic/vatic/videos/DJI_0024_30m_szeldontes_vadvalto_arpa_homokmegy_20180603_napos_kalaszos_T4 $'Pozit\303\255vROI' $'Negat\303\255vROI' $'T\303\272r\303\241s' '~Friss' '~1-2Hetes' '~Régebbi' '~Egyéb1' '~Egyéb2' '~Egyéb3' $'R\303\241g\303\241s' '~Friss' '~1-2Hetes' '~Régebbi' '~Egyéb1' '~Egyéb2' '~Egyéb3' $'T\303\266r\303\251s' '~Friss' '~1-2Hetes' '~Régebbi' '~Egyéb1' '~Egyéb2' '~Egyéb3' $'Tapos\303\241s' '~Friss' '~1-2Hetes' '~Régebbi' '~Egyéb1' '~Egyéb2' '~Egyéb3' $'Eg\303\251szs\303\251gesN\303\266v\303\251ny' $'Egy\303\251b1' $'Egy\303\251b2' $'Egy\303\251b3' $'Egy\303\251b4' $'Egy\303\251b5' Bizonytalan $'M\305\261vel\305\221\303\272t' $'Gktapos\303\241s' $'Vet\305\221hiba' $'Sz\303\251ld\303\266nt\303\251s' $'J\303\251gk\303\241r' $'Belv\303\255z' $'Asz\303\241ly' $'Er\303\263zi\303\263' $'Egyszik\305\261Gyom' $'K\303\251tszik\305\261Gyom' $'Egy\303\251bN\303\266vv\303\251delmiPR' --offline --title '$filenameNoDot Video' --length 1000 --description 'vatic annotation'
+ turkic publish --offline
+ mkdir /home/horvathandras/vatic/vatic/public/videothumbnails/DJI_0024_30m_szeldontes_vadvalto_arpa_homokmegy_20180603_napos_kalaszos_T4
+ cp /home/horvathandras/vatic/vatic/videos/DJI_0024_30m_szeldontes_vadvalto_arpa_homokmegy_20180603_napos_kalaszos_T4/0/0/31.jpg /home/horvathandras/vatic/vatic/public/videothumbnails/DJI_0024_30m_szeldontes_vadvalto_arpa_homokmegy_20180603_napos_kalaszos_T4/thumb.jpg
